<?xml version="1.0" encoding="UTF-8" standalone="no"?>
<svg width="100%" height="100%" viewBox="0 0 3334 3334" version="1.1" xmlns="http://www.w3.org/2000/svg" xmlns:xlink="http://www.w3.org/1999/xlink" xml:space="preserve" xmlns:serif="http://www.serif.com/" style="fill-rule:evenodd;clip-rule:evenodd;stroke-linejoin:round;stroke-miterlimit:2;">
	<g id="notitia-cube">
		<path id="notitia-engineer" d="M2825.12,2355.02c18.282,-11.112 29.61,-30.803 30.026,-52.193l23.099,-1188.55c0.438,-22.505 -11.259,-43.506 -30.623,-54.981c-19.363,-11.476 -43.401,-11.654 -62.932,-0.466l-1044.93,598.595c-19.5,11.171 -31.501,31.951 -31.432,54.424l3.716,1208.78c0.07,22.546 12.277,43.308 31.946,54.33c19.669,11.022 43.75,10.596 63.016,-1.114l1018.11,-618.829Z" style="fill:#81c78444;" />
		<path id="notitia-designer" d="M478.186,2307.57c0.483,21.389 11.872,41.045 30.189,52.1l1017.76,614.279c19.27,11.631 43.306,12.001 62.926,0.97c19.62,-11.031 31.793,-31.76 31.869,-54.268l4.067,-1204.23c0.076,-22.474 -11.92,-43.257 -31.417,-54.434l-1048.69,-601.172c-19.56,-11.214 -43.644,-11.022 -63.024,0.5c-19.38,11.523 -31.052,32.59 -30.543,55.131l26.864,1191.13Z" style="fill:#dce775;" />
		<path id="notitia-operator" d="M1694.63,306.942c-18.765,-10.276 -41.482,-10.241 -60.214,0.094l-1040.86,574.269c-19.708,10.874 -32.047,31.504 -32.303,54.011c-0.257,22.507 11.608,43.414 31.063,54.734l1040.86,605.637c19.425,11.303 43.422,11.306 62.849,0.01l1044.98,-607.61c19.491,-11.333 31.367,-32.286 31.079,-54.831c-0.289,-22.545 -12.699,-43.186 -32.474,-54.016l-1044.98,-572.298Z" style="fill:#4db6ac44;" />
	</g>
</svg>